<mxfile host="app.diagrams.net" modified="2022-08-03T14:04:44.988Z" agent="5.0 (Windows NT 10.0; Win64; x64) AppleWebKit/537.36 (KHTML, like Gecko) Chrome/103.0.0.0 Safari/537.36" etag="rLWl7crbnHsk8f6wdWrr" version="20.0.4" type="github">
  <diagram id="C5RBs43oDa-KdzZeNtuy" name="Page-1">
    <mxGraphModel dx="2249" dy="1894" grid="1" gridSize="10" guides="1" tooltips="1" connect="1" arrows="1" fold="1" page="1" pageScale="1" pageWidth="827" pageHeight="1169" math="0" shadow="0">
      <root>
        <mxCell id="WIyWlLk6GJQsqaUBKTNV-0" />
        <mxCell id="WIyWlLk6GJQsqaUBKTNV-1" parent="WIyWlLk6GJQsqaUBKTNV-0" />
        <mxCell id="IKsz1c_bPwegAjEKbgQd-88" value="" style="whiteSpace=wrap;html=1;strokeColor=none;" parent="WIyWlLk6GJQsqaUBKTNV-1" vertex="1">
          <mxGeometry x="-60" y="-1169" width="1140" height="960" as="geometry" />
        </mxCell>
        <mxCell id="IKsz1c_bPwegAjEKbgQd-44" style="edgeStyle=orthogonalEdgeStyle;rounded=0;orthogonalLoop=1;jettySize=auto;html=1;exitX=0.5;exitY=1;exitDx=0;exitDy=0;entryX=0.5;entryY=0;entryDx=0;entryDy=0;" parent="WIyWlLk6GJQsqaUBKTNV-1" source="IKsz1c_bPwegAjEKbgQd-21" target="IKsz1c_bPwegAjEKbgQd-22" edge="1">
          <mxGeometry relative="1" as="geometry" />
        </mxCell>
        <mxCell id="IKsz1c_bPwegAjEKbgQd-21" value="Start" style="ellipse;whiteSpace=wrap;html=1;fillColor=#f8cecc;strokeColor=#b85450;" parent="WIyWlLk6GJQsqaUBKTNV-1" vertex="1">
          <mxGeometry x="354" y="-1130" width="116" height="70" as="geometry" />
        </mxCell>
        <mxCell id="IKsz1c_bPwegAjEKbgQd-45" style="edgeStyle=orthogonalEdgeStyle;rounded=0;orthogonalLoop=1;jettySize=auto;html=1;exitX=0;exitY=0.5;exitDx=0;exitDy=0;" parent="WIyWlLk6GJQsqaUBKTNV-1" source="IKsz1c_bPwegAjEKbgQd-22" target="IKsz1c_bPwegAjEKbgQd-23" edge="1">
          <mxGeometry relative="1" as="geometry" />
        </mxCell>
        <mxCell id="IKsz1c_bPwegAjEKbgQd-46" style="edgeStyle=orthogonalEdgeStyle;rounded=0;orthogonalLoop=1;jettySize=auto;html=1;exitX=0;exitY=0.5;exitDx=0;exitDy=0;" parent="WIyWlLk6GJQsqaUBKTNV-1" source="IKsz1c_bPwegAjEKbgQd-22" target="IKsz1c_bPwegAjEKbgQd-24" edge="1">
          <mxGeometry relative="1" as="geometry" />
        </mxCell>
        <mxCell id="IKsz1c_bPwegAjEKbgQd-47" style="edgeStyle=orthogonalEdgeStyle;rounded=0;orthogonalLoop=1;jettySize=auto;html=1;exitX=1;exitY=0.5;exitDx=0;exitDy=0;" parent="WIyWlLk6GJQsqaUBKTNV-1" source="IKsz1c_bPwegAjEKbgQd-22" target="IKsz1c_bPwegAjEKbgQd-25" edge="1">
          <mxGeometry relative="1" as="geometry" />
        </mxCell>
        <mxCell id="IKsz1c_bPwegAjEKbgQd-48" style="edgeStyle=orthogonalEdgeStyle;rounded=0;orthogonalLoop=1;jettySize=auto;html=1;exitX=1;exitY=0.5;exitDx=0;exitDy=0;" parent="WIyWlLk6GJQsqaUBKTNV-1" source="IKsz1c_bPwegAjEKbgQd-22" target="IKsz1c_bPwegAjEKbgQd-26" edge="1">
          <mxGeometry relative="1" as="geometry" />
        </mxCell>
        <mxCell id="IKsz1c_bPwegAjEKbgQd-22" value="Menu&lt;br&gt;Order&lt;br&gt;Reviews&lt;br&gt;Contact" style="rhombus;whiteSpace=wrap;html=1;fillColor=#b1ddf0;strokeColor=#10739e;" parent="WIyWlLk6GJQsqaUBKTNV-1" vertex="1">
          <mxGeometry x="361" y="-1040" width="109" height="100" as="geometry" />
        </mxCell>
        <mxCell id="IKsz1c_bPwegAjEKbgQd-49" style="edgeStyle=orthogonalEdgeStyle;rounded=0;orthogonalLoop=1;jettySize=auto;html=1;exitX=0.5;exitY=1;exitDx=0;exitDy=0;entryX=0.5;entryY=0;entryDx=0;entryDy=0;" parent="WIyWlLk6GJQsqaUBKTNV-1" source="IKsz1c_bPwegAjEKbgQd-23" target="IKsz1c_bPwegAjEKbgQd-28" edge="1">
          <mxGeometry relative="1" as="geometry" />
        </mxCell>
        <mxCell id="IKsz1c_bPwegAjEKbgQd-23" value="Display&lt;br&gt;Menu" style="rounded=1;whiteSpace=wrap;html=1;fillColor=#fad7ac;strokeColor=#b46504;" parent="WIyWlLk6GJQsqaUBKTNV-1" vertex="1">
          <mxGeometry x="60" y="-910" width="110" height="60" as="geometry" />
        </mxCell>
        <mxCell id="IKsz1c_bPwegAjEKbgQd-58" style="edgeStyle=orthogonalEdgeStyle;rounded=0;orthogonalLoop=1;jettySize=auto;html=1;exitX=0.5;exitY=1;exitDx=0;exitDy=0;entryX=0.5;entryY=0;entryDx=0;entryDy=0;" parent="WIyWlLk6GJQsqaUBKTNV-1" source="IKsz1c_bPwegAjEKbgQd-24" target="IKsz1c_bPwegAjEKbgQd-33" edge="1">
          <mxGeometry relative="1" as="geometry">
            <mxPoint x="385" y="-680" as="targetPoint" />
          </mxGeometry>
        </mxCell>
        <mxCell id="IKsz1c_bPwegAjEKbgQd-24" value="Display Order&lt;br&gt;Details" style="rounded=1;whiteSpace=wrap;html=1;fillColor=#fad7ac;strokeColor=#b46504;" parent="WIyWlLk6GJQsqaUBKTNV-1" vertex="1">
          <mxGeometry x="250" y="-910" width="110" height="60" as="geometry" />
        </mxCell>
        <mxCell id="IKsz1c_bPwegAjEKbgQd-63" style="edgeStyle=orthogonalEdgeStyle;rounded=0;orthogonalLoop=1;jettySize=auto;html=1;exitX=0.5;exitY=1;exitDx=0;exitDy=0;entryX=0.5;entryY=0;entryDx=0;entryDy=0;" parent="WIyWlLk6GJQsqaUBKTNV-1" source="IKsz1c_bPwegAjEKbgQd-25" target="IKsz1c_bPwegAjEKbgQd-38" edge="1">
          <mxGeometry relative="1" as="geometry" />
        </mxCell>
        <mxCell id="IKsz1c_bPwegAjEKbgQd-25" value="Display&lt;br&gt;Reviews" style="rounded=1;whiteSpace=wrap;html=1;fillColor=#fad7ac;strokeColor=#b46504;" parent="WIyWlLk6GJQsqaUBKTNV-1" vertex="1">
          <mxGeometry x="460" y="-910" width="110" height="60" as="geometry" />
        </mxCell>
        <mxCell id="8TpNCi15e-AeiEWoBwc8-3" style="edgeStyle=orthogonalEdgeStyle;rounded=0;orthogonalLoop=1;jettySize=auto;html=1;exitX=0.5;exitY=1;exitDx=0;exitDy=0;" edge="1" parent="WIyWlLk6GJQsqaUBKTNV-1" source="IKsz1c_bPwegAjEKbgQd-26" target="8TpNCi15e-AeiEWoBwc8-1">
          <mxGeometry relative="1" as="geometry" />
        </mxCell>
        <mxCell id="IKsz1c_bPwegAjEKbgQd-26" value="Display Contact&amp;nbsp;&lt;br&gt;Information" style="rounded=1;whiteSpace=wrap;html=1;fillColor=#fad7ac;strokeColor=#b46504;" parent="WIyWlLk6GJQsqaUBKTNV-1" vertex="1">
          <mxGeometry x="763" y="-905" width="110" height="60" as="geometry" />
        </mxCell>
        <mxCell id="IKsz1c_bPwegAjEKbgQd-50" style="edgeStyle=orthogonalEdgeStyle;rounded=0;orthogonalLoop=1;jettySize=auto;html=1;exitX=0.5;exitY=1;exitDx=0;exitDy=0;" parent="WIyWlLk6GJQsqaUBKTNV-1" source="IKsz1c_bPwegAjEKbgQd-28" target="IKsz1c_bPwegAjEKbgQd-31" edge="1">
          <mxGeometry relative="1" as="geometry" />
        </mxCell>
        <mxCell id="IKsz1c_bPwegAjEKbgQd-51" style="edgeStyle=orthogonalEdgeStyle;rounded=0;orthogonalLoop=1;jettySize=auto;html=1;exitX=0.5;exitY=1;exitDx=0;exitDy=0;entryX=0.5;entryY=0;entryDx=0;entryDy=0;" parent="WIyWlLk6GJQsqaUBKTNV-1" source="IKsz1c_bPwegAjEKbgQd-28" target="IKsz1c_bPwegAjEKbgQd-41" edge="1">
          <mxGeometry relative="1" as="geometry" />
        </mxCell>
        <mxCell id="IKsz1c_bPwegAjEKbgQd-28" value="Add item to &lt;br&gt;order or display nutritional &lt;br&gt;information" style="rhombus;whiteSpace=wrap;html=1;fillColor=#b1ddf0;strokeColor=#10739e;" parent="WIyWlLk6GJQsqaUBKTNV-1" vertex="1">
          <mxGeometry x="51.75" y="-790" width="126.5" height="110" as="geometry" />
        </mxCell>
        <mxCell id="IKsz1c_bPwegAjEKbgQd-31" value="Display Nutritional Information" style="rounded=1;whiteSpace=wrap;html=1;fillColor=#fad7ac;strokeColor=#b46504;" parent="WIyWlLk6GJQsqaUBKTNV-1" vertex="1">
          <mxGeometry x="30" y="-635" width="110" height="60" as="geometry" />
        </mxCell>
        <mxCell id="IKsz1c_bPwegAjEKbgQd-59" style="edgeStyle=orthogonalEdgeStyle;rounded=0;orthogonalLoop=1;jettySize=auto;html=1;exitX=0.5;exitY=1;exitDx=0;exitDy=0;" parent="WIyWlLk6GJQsqaUBKTNV-1" source="IKsz1c_bPwegAjEKbgQd-33" target="IKsz1c_bPwegAjEKbgQd-57" edge="1">
          <mxGeometry relative="1" as="geometry" />
        </mxCell>
        <mxCell id="IKsz1c_bPwegAjEKbgQd-61" style="edgeStyle=orthogonalEdgeStyle;rounded=0;orthogonalLoop=1;jettySize=auto;html=1;exitX=1;exitY=0.5;exitDx=0;exitDy=0;" parent="WIyWlLk6GJQsqaUBKTNV-1" source="IKsz1c_bPwegAjEKbgQd-33" target="IKsz1c_bPwegAjEKbgQd-37" edge="1">
          <mxGeometry relative="1" as="geometry" />
        </mxCell>
        <mxCell id="IKsz1c_bPwegAjEKbgQd-33" value="Finalize Order" style="rhombus;whiteSpace=wrap;html=1;fillColor=#b1ddf0;strokeColor=#10739e;" parent="WIyWlLk6GJQsqaUBKTNV-1" vertex="1">
          <mxGeometry x="309" y="-730" width="130" height="110" as="geometry" />
        </mxCell>
        <mxCell id="IKsz1c_bPwegAjEKbgQd-62" style="edgeStyle=orthogonalEdgeStyle;rounded=0;orthogonalLoop=1;jettySize=auto;html=1;exitX=0.5;exitY=1;exitDx=0;exitDy=0;" parent="WIyWlLk6GJQsqaUBKTNV-1" source="IKsz1c_bPwegAjEKbgQd-37" target="IKsz1c_bPwegAjEKbgQd-40" edge="1">
          <mxGeometry relative="1" as="geometry" />
        </mxCell>
        <mxCell id="IKsz1c_bPwegAjEKbgQd-37" value="Display Order Confirmation&amp;nbsp;" style="rounded=1;whiteSpace=wrap;html=1;fillColor=#fad7ac;strokeColor=#b46504;" parent="WIyWlLk6GJQsqaUBKTNV-1" vertex="1">
          <mxGeometry x="455" y="-560" width="110" height="60" as="geometry" />
        </mxCell>
        <mxCell id="IKsz1c_bPwegAjEKbgQd-64" style="edgeStyle=orthogonalEdgeStyle;rounded=0;orthogonalLoop=1;jettySize=auto;html=1;exitX=0;exitY=0.5;exitDx=0;exitDy=0;entryX=0;entryY=0.5;entryDx=0;entryDy=0;" parent="WIyWlLk6GJQsqaUBKTNV-1" source="IKsz1c_bPwegAjEKbgQd-38" target="IKsz1c_bPwegAjEKbgQd-25" edge="1">
          <mxGeometry relative="1" as="geometry" />
        </mxCell>
        <mxCell id="IKsz1c_bPwegAjEKbgQd-65" style="edgeStyle=orthogonalEdgeStyle;rounded=0;orthogonalLoop=1;jettySize=auto;html=1;exitX=0.5;exitY=1;exitDx=0;exitDy=0;" parent="WIyWlLk6GJQsqaUBKTNV-1" source="IKsz1c_bPwegAjEKbgQd-38" target="IKsz1c_bPwegAjEKbgQd-39" edge="1">
          <mxGeometry relative="1" as="geometry" />
        </mxCell>
        <mxCell id="IKsz1c_bPwegAjEKbgQd-38" value="Add review" style="rhombus;whiteSpace=wrap;html=1;fillColor=#b1ddf0;strokeColor=#10739e;" parent="WIyWlLk6GJQsqaUBKTNV-1" vertex="1">
          <mxGeometry x="630" y="-770" width="119" height="115" as="geometry" />
        </mxCell>
        <mxCell id="IKsz1c_bPwegAjEKbgQd-87" style="edgeStyle=orthogonalEdgeStyle;rounded=0;orthogonalLoop=1;jettySize=auto;html=1;exitX=0;exitY=0.5;exitDx=0;exitDy=0;" parent="WIyWlLk6GJQsqaUBKTNV-1" source="IKsz1c_bPwegAjEKbgQd-39" edge="1">
          <mxGeometry relative="1" as="geometry">
            <mxPoint x="570" y="-710" as="targetPoint" />
          </mxGeometry>
        </mxCell>
        <mxCell id="IKsz1c_bPwegAjEKbgQd-39" value="Add new review" style="rounded=1;whiteSpace=wrap;html=1;fillColor=#fad7ac;strokeColor=#b46504;" parent="WIyWlLk6GJQsqaUBKTNV-1" vertex="1">
          <mxGeometry x="634.5" y="-600" width="110" height="60" as="geometry" />
        </mxCell>
        <mxCell id="IKsz1c_bPwegAjEKbgQd-40" value="End" style="ellipse;whiteSpace=wrap;html=1;fillColor=#f8cecc;strokeColor=#b85450;" parent="WIyWlLk6GJQsqaUBKTNV-1" vertex="1">
          <mxGeometry x="455" y="-480" width="110" height="70" as="geometry" />
        </mxCell>
        <mxCell id="IKsz1c_bPwegAjEKbgQd-52" style="edgeStyle=orthogonalEdgeStyle;rounded=0;orthogonalLoop=1;jettySize=auto;html=1;exitX=1;exitY=0.5;exitDx=0;exitDy=0;entryX=0;entryY=0.5;entryDx=0;entryDy=0;" parent="WIyWlLk6GJQsqaUBKTNV-1" source="IKsz1c_bPwegAjEKbgQd-41" target="IKsz1c_bPwegAjEKbgQd-24" edge="1">
          <mxGeometry relative="1" as="geometry">
            <Array as="points">
              <mxPoint x="270" y="-585" />
              <mxPoint x="270" y="-830" />
              <mxPoint x="230" y="-830" />
              <mxPoint x="230" y="-880" />
            </Array>
          </mxGeometry>
        </mxCell>
        <mxCell id="IKsz1c_bPwegAjEKbgQd-67" style="edgeStyle=orthogonalEdgeStyle;rounded=0;orthogonalLoop=1;jettySize=auto;html=1;exitX=0.5;exitY=1;exitDx=0;exitDy=0;entryX=0;entryY=0.5;entryDx=0;entryDy=0;" parent="WIyWlLk6GJQsqaUBKTNV-1" source="IKsz1c_bPwegAjEKbgQd-41" target="IKsz1c_bPwegAjEKbgQd-23" edge="1">
          <mxGeometry relative="1" as="geometry">
            <Array as="points">
              <mxPoint x="199" y="-500" />
              <mxPoint x="10" y="-500" />
              <mxPoint x="10" y="-880" />
            </Array>
          </mxGeometry>
        </mxCell>
        <mxCell id="IKsz1c_bPwegAjEKbgQd-41" value="Review Order" style="rhombus;whiteSpace=wrap;html=1;fillColor=#b1ddf0;strokeColor=#10739e;" parent="WIyWlLk6GJQsqaUBKTNV-1" vertex="1">
          <mxGeometry x="147" y="-635" width="103" height="100" as="geometry" />
        </mxCell>
        <mxCell id="IKsz1c_bPwegAjEKbgQd-60" style="edgeStyle=orthogonalEdgeStyle;rounded=0;orthogonalLoop=1;jettySize=auto;html=1;exitX=0;exitY=0.5;exitDx=0;exitDy=0;entryX=0;entryY=0.5;entryDx=0;entryDy=0;" parent="WIyWlLk6GJQsqaUBKTNV-1" source="IKsz1c_bPwegAjEKbgQd-57" target="IKsz1c_bPwegAjEKbgQd-33" edge="1">
          <mxGeometry relative="1" as="geometry" />
        </mxCell>
        <mxCell id="IKsz1c_bPwegAjEKbgQd-57" value="Edit Order" style="rounded=1;whiteSpace=wrap;html=1;fillColor=#fad7ac;strokeColor=#b46504;" parent="WIyWlLk6GJQsqaUBKTNV-1" vertex="1">
          <mxGeometry x="319" y="-560" width="110" height="60" as="geometry" />
        </mxCell>
        <mxCell id="IKsz1c_bPwegAjEKbgQd-69" value="Order" style="text;html=1;strokeColor=none;fillColor=none;align=center;verticalAlign=middle;whiteSpace=wrap;rounded=0;" parent="WIyWlLk6GJQsqaUBKTNV-1" vertex="1">
          <mxGeometry x="151" y="-681" width="60" height="30" as="geometry" />
        </mxCell>
        <mxCell id="IKsz1c_bPwegAjEKbgQd-70" value="Nutrition" style="text;html=1;strokeColor=none;fillColor=none;align=center;verticalAlign=middle;whiteSpace=wrap;rounded=0;" parent="WIyWlLk6GJQsqaUBKTNV-1" vertex="1">
          <mxGeometry x="50" y="-679" width="60" height="30" as="geometry" />
        </mxCell>
        <mxCell id="IKsz1c_bPwegAjEKbgQd-73" value="Menu" style="text;html=1;strokeColor=none;fillColor=none;align=center;verticalAlign=middle;whiteSpace=wrap;rounded=0;" parent="WIyWlLk6GJQsqaUBKTNV-1" vertex="1">
          <mxGeometry x="100" y="-1014" width="60" height="30" as="geometry" />
        </mxCell>
        <mxCell id="IKsz1c_bPwegAjEKbgQd-76" value="Order" style="text;html=1;strokeColor=none;fillColor=none;align=center;verticalAlign=middle;whiteSpace=wrap;rounded=0;" parent="WIyWlLk6GJQsqaUBKTNV-1" vertex="1">
          <mxGeometry x="270" y="-1012" width="60" height="30" as="geometry" />
        </mxCell>
        <mxCell id="IKsz1c_bPwegAjEKbgQd-77" value="No" style="text;html=1;strokeColor=none;fillColor=none;align=center;verticalAlign=middle;whiteSpace=wrap;rounded=0;" parent="WIyWlLk6GJQsqaUBKTNV-1" vertex="1">
          <mxGeometry x="152" y="-525" width="60" height="30" as="geometry" />
        </mxCell>
        <mxCell id="IKsz1c_bPwegAjEKbgQd-80" value="Yes" style="text;html=1;strokeColor=none;fillColor=none;align=center;verticalAlign=middle;whiteSpace=wrap;rounded=0;" parent="WIyWlLk6GJQsqaUBKTNV-1" vertex="1">
          <mxGeometry x="228" y="-608" width="60" height="30" as="geometry" />
        </mxCell>
        <mxCell id="IKsz1c_bPwegAjEKbgQd-81" value="Reviews" style="text;html=1;strokeColor=none;fillColor=none;align=center;verticalAlign=middle;whiteSpace=wrap;rounded=0;" parent="WIyWlLk6GJQsqaUBKTNV-1" vertex="1">
          <mxGeometry x="487" y="-1013" width="60" height="30" as="geometry" />
        </mxCell>
        <mxCell id="IKsz1c_bPwegAjEKbgQd-82" value="Contact" style="text;html=1;strokeColor=none;fillColor=none;align=center;verticalAlign=middle;whiteSpace=wrap;rounded=0;" parent="WIyWlLk6GJQsqaUBKTNV-1" vertex="1">
          <mxGeometry x="761.5" y="-1012" width="60" height="30" as="geometry" />
        </mxCell>
        <mxCell id="IKsz1c_bPwegAjEKbgQd-83" value="No" style="text;html=1;strokeColor=none;fillColor=none;align=center;verticalAlign=middle;whiteSpace=wrap;rounded=0;" parent="WIyWlLk6GJQsqaUBKTNV-1" vertex="1">
          <mxGeometry x="335" y="-622" width="60" height="30" as="geometry" />
        </mxCell>
        <mxCell id="IKsz1c_bPwegAjEKbgQd-84" value="No" style="text;html=1;strokeColor=none;fillColor=none;align=center;verticalAlign=middle;whiteSpace=wrap;rounded=0;" parent="WIyWlLk6GJQsqaUBKTNV-1" vertex="1">
          <mxGeometry x="588" y="-734" width="60" height="30" as="geometry" />
        </mxCell>
        <mxCell id="IKsz1c_bPwegAjEKbgQd-85" value="Yes" style="text;html=1;strokeColor=none;fillColor=none;align=center;verticalAlign=middle;whiteSpace=wrap;rounded=0;" parent="WIyWlLk6GJQsqaUBKTNV-1" vertex="1">
          <mxGeometry x="673" y="-660" width="60" height="30" as="geometry" />
        </mxCell>
        <mxCell id="IKsz1c_bPwegAjEKbgQd-86" value="Yes" style="text;html=1;strokeColor=none;fillColor=none;align=center;verticalAlign=middle;whiteSpace=wrap;rounded=0;" parent="WIyWlLk6GJQsqaUBKTNV-1" vertex="1">
          <mxGeometry x="469" y="-697" width="60" height="30" as="geometry" />
        </mxCell>
        <mxCell id="8TpNCi15e-AeiEWoBwc8-5" style="edgeStyle=orthogonalEdgeStyle;rounded=0;orthogonalLoop=1;jettySize=auto;html=1;exitX=1;exitY=0.5;exitDx=0;exitDy=0;" edge="1" parent="WIyWlLk6GJQsqaUBKTNV-1" source="8TpNCi15e-AeiEWoBwc8-1">
          <mxGeometry relative="1" as="geometry">
            <mxPoint x="903" y="-712" as="targetPoint" />
          </mxGeometry>
        </mxCell>
        <mxCell id="8TpNCi15e-AeiEWoBwc8-1" value="Send message" style="rhombus;whiteSpace=wrap;html=1;fillColor=#b1ddf0;strokeColor=#10739e;" vertex="1" parent="WIyWlLk6GJQsqaUBKTNV-1">
          <mxGeometry x="758.5" y="-770" width="119" height="115" as="geometry" />
        </mxCell>
        <mxCell id="8TpNCi15e-AeiEWoBwc8-9" style="edgeStyle=orthogonalEdgeStyle;rounded=0;orthogonalLoop=1;jettySize=auto;html=1;exitX=0.25;exitY=0;exitDx=0;exitDy=0;entryX=1;entryY=0.5;entryDx=0;entryDy=0;" edge="1" parent="WIyWlLk6GJQsqaUBKTNV-1" source="8TpNCi15e-AeiEWoBwc8-6" target="IKsz1c_bPwegAjEKbgQd-26">
          <mxGeometry relative="1" as="geometry">
            <Array as="points">
              <mxPoint x="815" y="-635" />
              <mxPoint x="903" y="-635" />
              <mxPoint x="903" y="-875" />
            </Array>
          </mxGeometry>
        </mxCell>
        <mxCell id="8TpNCi15e-AeiEWoBwc8-6" value="Yes" style="text;html=1;strokeColor=none;fillColor=none;align=center;verticalAlign=middle;whiteSpace=wrap;rounded=0;" vertex="1" parent="WIyWlLk6GJQsqaUBKTNV-1">
          <mxGeometry x="800" y="-657" width="60" height="30" as="geometry" />
        </mxCell>
        <mxCell id="8TpNCi15e-AeiEWoBwc8-7" value="No" style="text;html=1;strokeColor=none;fillColor=none;align=center;verticalAlign=middle;whiteSpace=wrap;rounded=0;" vertex="1" parent="WIyWlLk6GJQsqaUBKTNV-1">
          <mxGeometry x="855" y="-733" width="60" height="30" as="geometry" />
        </mxCell>
      </root>
    </mxGraphModel>
  </diagram>
</mxfile>
